<svg version="1.1" preserveAspectRatio="none" xmlns="http://www.w3.org/2000/svg" width="500" height="500" viewBox="0 0 500 500"><rect width="100%" height="100%" fill="#FFFFFF" fill-opacity="1"/><svg viewBox="-12.6366 177.7008 534.1964 136" width="333" height="84.77780831169959" x="83.5px" y="207.6111px" xmlns="http://www.w3.org/2000/svg" xmlns:xlink="http://www.w3.org/1999/xlink" preserveAspectRatio="none"><defs></defs><style>.aIptOCySncolors-3 {fill:#3D516B;fill-opacity:1;}.aIptOCySncolors-4 {fill:#576879;fill-opacity:1;}.aIptOCySncolors-5 {fill:#A1AAB0;fill-opacity:1;}.aIptOCySncolors-6 {fill:#D0CBCB;fill-opacity:1;}.aIptOCySncolors-7 {fill:#FBEAEA;fill-opacity:1;}.companyName {fill:#6381A8;fill-opacity:1;}.icon1 {fill:#6381A8;fill-opacity:1;}.icon2 {fill:#E9DBDF;fill-opacity:1;}.icon3 {fill:#ACC5E1;fill-opacity:1;}.icon3-str {stroke:#ACC5E1;stroke-opacity:1;}.shapeStroke-str {stroke:#E9DBDF;stroke-opacity:1;}.text {fill:#6381A8;fill-opacity:1;}</style><g opacity="1" transform="rotate(0 -12.6366 189.7008)">
<svg width="117.9749" height="112" x="-12.6366" y="189.7008" version="1.1" preserveAspectRatio="none" viewBox="3.298004150390625 5.669004440307617 93.40636444091797 88.67572784423828">
  <g transform="matrix(1 0 0 1 0 0)" class="icon1"><path d="m32.055 34.961h-22.461v2.6406h22.461zm35.891 2.6406h22.461v-2.6406h-22.461zm0.41797-20.059h-36.727v2.6406h36.727zm-0.41797 63.074h18.973v-40.617h-18.973zm-54.863 0h18.973v-40.617h-18.973zm81.137 7.4336h-88.438v3.8906h88.438zm-84.625-2.3984h80.812v-2.6367h-80.812v2.6406zm30.27-5.0352v-20.309c0.003907-0.32422 0.13672-0.63281 0.37109-0.85938 0.23438-0.22656 0.54688-0.34766 0.87109-0.34375h17.789c0.32422-0.003907 0.63672 0.11719 0.87109 0.34375 0.23047 0.22656 0.36719 0.53516 0.37109 0.85938v20.309h5.3203l0.003907-58.035h-30.922v58.035zm8.8945 0-6.4102-0.003907v-19.109h6.4062zm2.4844-19.113h6.4062l0.003906 19.113h-6.4102zm-27.383-15.805v2.6406h-3.0508v-2.6406zm-4.3008-2.3984h5.543c0.32422-0.007812 0.63672 0.11719 0.86719 0.33984 0.23438 0.22656 0.36719 0.53516 0.375 0.85938v5.0391c-0.007812 0.32422-0.14062 0.63281-0.375 0.85547-0.23047 0.22656-0.54297 0.35156-0.86719 0.34375h-5.5352c-0.32422 0.007813-0.64062-0.11719-0.87109-0.34375-0.23437-0.22266-0.36719-0.53125-0.375-0.85547v-5.0391c0.007813-0.32422 0.14063-0.63281 0.375-0.85938 0.23438-0.22266 0.54688-0.34766 0.87109-0.33984zm4.3008 13.137v2.6406h-3.0508v-2.6406zm-4.3008-2.3984 5.543-0.003906c0.32422-0.007812 0.63672 0.11719 0.86719 0.34375 0.23438 0.22266 0.36719 0.53125 0.375 0.85547v5.0391c-0.007812 0.32422-0.14062 0.63281-0.375 0.85547-0.23047 0.22656-0.54297 0.35156-0.86719 0.34375h-5.5352c-0.32422 0.007813-0.63672-0.11719-0.87109-0.34375-0.23437-0.22266-0.36719-0.53125-0.375-0.85547v-5.0352c0.007813-0.32422 0.14063-0.63281 0.375-0.85547 0.23438-0.22656 0.54688-0.35156 0.87109-0.34375zm4.3008 13.137v2.6406l-3.0508-0.003906v-2.6367zm-4.3008-2.3945 5.543-0.007812c0.32422-0.003907 0.63672 0.11719 0.86719 0.34375 0.23438 0.22656 0.36719 0.53516 0.375 0.85937v5.0391-0.003906c-0.007812 0.32422-0.14062 0.63281-0.375 0.85938-0.23047 0.22656-0.54297 0.34766-0.86719 0.34375h-5.5352c-0.32422 0.003906-0.63672-0.11719-0.87109-0.34375-0.23437-0.22656-0.36719-0.53516-0.375-0.85938v-5.0352c0.007813-0.32422 0.14063-0.63281 0.375-0.85547 0.23047-0.22656 0.54688-0.34766 0.87109-0.34375zm59.633-19.082v2.6406h-3.0508v-2.6406zm-4.3008-2.3984h5.5391c0.32422-0.007812 0.63672 0.11719 0.87109 0.33984 0.23438 0.22656 0.36719 0.53516 0.375 0.85938v5.0391c-0.007812 0.32422-0.14062 0.63281-0.375 0.85547-0.23438 0.22656-0.54688 0.35156-0.87109 0.34375h-5.5312c-0.32422 0.007813-0.63672-0.11719-0.86719-0.34375-0.23438-0.22266-0.36719-0.53125-0.375-0.85547v-5.0391c0.007812-0.32422 0.14062-0.63281 0.375-0.85938 0.23047-0.22266 0.54297-0.34766 0.86719-0.33984zm4.3008 13.137v2.6406h-3.0508v-2.6406zm-4.3008-2.3984h5.5391v-0.003906c0.32422-0.007812 0.63672 0.11719 0.87109 0.34375 0.23438 0.22266 0.36719 0.53125 0.375 0.85547v5.0391c-0.007812 0.32422-0.14062 0.63281-0.375 0.85547-0.23438 0.22656-0.54688 0.35156-0.87109 0.34375h-5.5312c-0.32422 0.007813-0.63672-0.11719-0.86719-0.34375-0.23438-0.22266-0.36719-0.53125-0.375-0.85547v-5.0352c0.007812-0.32422 0.14062-0.63281 0.375-0.85547 0.23047-0.22656 0.54297-0.35156 0.86719-0.34375zm4.3008 13.137v2.6406l-3.0508-0.003906v-2.6367zm-4.3008-2.3945h5.5391v-0.007812c0.32422-0.003907 0.63672 0.11719 0.87109 0.34375 0.23438 0.22656 0.36719 0.53516 0.375 0.85937v5.0391-0.003906c-0.007812 0.32422-0.14062 0.63281-0.375 0.85938-0.23438 0.22656-0.54688 0.34766-0.87109 0.34375h-5.5312c-0.32422 0.003906-0.63672-0.11719-0.86719-0.34375-0.23438-0.22656-0.36719-0.53516-0.375-0.85938v-5.0352c0.007812-0.32422 0.14062-0.63281 0.375-0.85547 0.23047-0.22656 0.54297-0.34766 0.86719-0.34375zm-23.41-20.312v-9.5078h5.6211v9.5078zm-8.1094 0v-9.5078h5.6211v9.5078zm-4.4375 2.3984c-0.66016 0-1.1992-0.53516-1.1992-1.1992 0-0.66406 0.53906-1.1992 1.1992-1.1992h1.9492l0.003907-10.707c0.003906-0.32422 0.13672-0.63281 0.37109-0.85938 0.23438-0.22266 0.54688-0.34766 0.87109-0.33984h16.219c0.32422-0.007812 0.63672 0.11719 0.86719 0.33984 0.23438 0.22656 0.36719 0.53516 0.375 0.85938v10.707h1.4766c0.66016 0 1.1992 0.53516 1.1992 1.1992 0 0.66406-0.53906 1.1992-1.1992 1.1992zm9.8203-31.715 0.003906-8.2891c0.027344-0.66797 0.57422-1.1953 1.2422-1.1953s1.2148 0.52734 1.2422 1.1953v8.2852h18.363c0.32422-0.007813 0.63672 0.11719 0.87109 0.34375 0.23047 0.22266 0.36719 0.53125 0.37109 0.85547v5.0391c-0.003906 0.32422-0.13672 0.63281-0.37109 0.85547-0.23437 0.22656-0.54687 0.35156-0.87109 0.34375h-1.6602v9.9805h23.699c0.32422-0.003906 0.63672 0.11719 0.87109 0.34375 0.23438 0.22656 0.36719 0.53516 0.37109 0.85938v5.0312c-0.011719 0.67188-0.56641 1.2109-1.2383 1.1992h-2.2422v40.617h2.2422c0.32422-0.003907 0.63672 0.11719 0.87109 0.34375 0.23438 0.22656 0.36719 0.53516 0.37109 0.85937v3.8398h2.5703v-0.003906c0.32422-0.003906 0.63672 0.11719 0.87109 0.34375 0.23047 0.22656 0.36719 0.53516 0.37109 0.85938v6.2852-0.003906c-0.003906 0.32422-0.14062 0.63281-0.37109 0.85938-0.23438 0.22656-0.54688 0.34766-0.87109 0.34375h-90.922c-0.32422 0.003906-0.63672-0.11719-0.87109-0.34375-0.23047-0.22656-0.36719-0.53516-0.37109-0.85938v-6.2852c0.003906-0.32422 0.14062-0.63281 0.37109-0.85938 0.23438-0.22656 0.54688-0.34766 0.87109-0.34375h2.5703v-3.8359c0.003906-0.32422 0.13672-0.63281 0.37109-0.85547 0.23438-0.22656 0.54688-0.35156 0.87109-0.34375h2.25v-40.617h-2.25c-0.32422 0.007812-0.63672-0.11719-0.87109-0.34375-0.23438-0.22266-0.36719-0.53125-0.37109-0.85547v-5.0391c0.003906-0.32422 0.13672-0.63281 0.37109-0.85938 0.23438-0.22266 0.54688-0.34766 0.87109-0.33984h23.699v-9.9805h-1.6523c-0.32422 0.003907-0.63672-0.11719-0.87109-0.34375-0.23047-0.22266-0.36719-0.53125-0.37109-0.85547v-5.0352c0.003906-0.32422 0.14062-0.63281 0.375-0.85938 0.23047-0.22656 0.54297-0.34766 0.86719-0.34375z" fill-rule="evenodd"></path></g>
</svg>
</g><g opacity="1" transform="rotate(0 143.3383 266.7008)">
<svg width="206.274" height="20" x="143.3383" y="266.7008" version="1.1" preserveAspectRatio="none" viewBox="0.44 -29.96 391.91999999999996 38">
  <g transform="matrix(1 0 0 1 0 0)" class="text"><path id="id-6izo4zJp16" d="M14.72-4.72L16.12-1.16Q15.24-0.44 13.98-0.08Q12.72 0.28 11.32 0.28L11.32 0.28Q7.80 0.28 5.88-1.56Q3.96-3.40 3.96-6.92L3.96-6.92L3.96-17.20L0.44-17.20L0.44-21.20L3.96-21.20L3.96-26.08L8.96-26.08L8.96-21.20L14.68-21.20L14.68-17.20L8.96-17.20L8.96-7.04Q8.96-5.48 9.72-4.66Q10.48-3.84 11.92-3.84L11.92-3.84Q13.60-3.84 14.72-4.72L14.72-4.72Z M36.36-21.60Q40.40-21.60 42.84-19.24Q45.28-16.88 45.28-12.24L45.28-12.24L45.28 0L40.28 0L40.28-11.60Q40.28-14.40 38.96-15.82Q37.64-17.24 35.20-17.24L35.20-17.24Q32.44-17.24 30.84-15.58Q29.24-13.92 29.24-10.80L29.24-10.80L29.24 0L24.24 0L24.24-29.68L29.24-29.68L29.24-18.88Q30.48-20.20 32.30-20.90Q34.12-21.60 36.36-21.60L36.36-21.60Z M75.92-10.56Q75.92-10.04 75.84-9.08L75.84-9.08L59.08-9.08Q59.52-6.72 61.38-5.34Q63.24-3.96 66-3.96L66-3.96Q69.52-3.96 71.80-6.28L71.80-6.28L74.48-3.20Q73.04-1.48 70.84-0.60Q68.64 0.28 65.88 0.28L65.88 0.28Q62.36 0.28 59.68-1.12Q57-2.52 55.54-5.02Q54.08-7.52 54.08-10.68L54.08-10.68Q54.08-13.80 55.50-16.30Q56.92-18.80 59.44-20.20Q61.96-21.60 65.12-21.60L65.12-21.60Q68.24-21.60 70.70-20.22Q73.16-18.84 74.54-16.34Q75.92-13.84 75.92-10.56L75.92-10.56ZM65.12-17.60Q62.72-17.60 61.06-16.18Q59.40-14.76 59.04-12.40L59.04-12.40L71.16-12.40Q70.84-14.72 69.20-16.16Q67.56-17.60 65.12-17.60L65.12-17.60Z M111.60-21.60Q114.72-21.60 117.18-20.24Q119.64-18.88 121.04-16.40Q122.44-13.92 122.44-10.68L122.44-10.68Q122.44-7.44 121.04-4.94Q119.64-2.44 117.18-1.08Q114.72 0.28 111.60 0.28L111.60 0.28Q109.40 0.28 107.58-0.48Q105.76-1.24 104.52-2.76L104.52-2.76L104.52 0L99.76 0L99.76-29.68L104.76-29.68L104.76-18.76Q106.04-20.16 107.78-20.88Q109.52-21.60 111.60-21.60L111.60-21.60ZM111.04-4Q113.80-4 115.58-5.84Q117.36-7.68 117.36-10.68L117.36-10.68Q117.36-13.68 115.58-15.52Q113.80-17.36 111.04-17.36L111.04-17.36Q109.24-17.36 107.80-16.54Q106.36-15.72 105.52-14.20Q104.68-12.68 104.68-10.68L104.68-10.68Q104.68-8.68 105.52-7.16Q106.36-5.64 107.80-4.82Q109.24-4 111.04-4L111.04-4Z M151.28-10.56Q151.28-10.04 151.20-9.08L151.20-9.08L134.44-9.08Q134.88-6.72 136.74-5.34Q138.60-3.96 141.36-3.96L141.36-3.96Q144.88-3.96 147.16-6.28L147.16-6.28L149.84-3.20Q148.40-1.48 146.20-0.60Q144 0.28 141.24 0.28L141.24 0.28Q137.72 0.28 135.04-1.12Q132.36-2.52 130.90-5.02Q129.44-7.52 129.44-10.68L129.44-10.68Q129.44-13.80 130.86-16.30Q132.28-18.80 134.80-20.20Q137.32-21.60 140.48-21.60L140.48-21.60Q143.60-21.60 146.06-20.22Q148.52-18.84 149.90-16.34Q151.28-13.84 151.28-10.56L151.28-10.56ZM140.48-17.60Q138.08-17.60 136.42-16.18Q134.76-14.76 134.40-12.40L134.40-12.40L146.52-12.40Q146.20-14.72 144.56-16.16Q142.92-17.60 140.48-17.60L140.48-17.60Z M167.64-21.60Q172.36-21.60 174.86-19.34Q177.36-17.08 177.36-12.52L177.36-12.52L177.36 0L172.64 0L172.64-2.60Q171.72-1.20 170.02-0.46Q168.32 0.28 165.92 0.28L165.92 0.28Q163.52 0.28 161.72-0.54Q159.92-1.36 158.94-2.82Q157.96-4.28 157.96-6.12L157.96-6.12Q157.96-9 160.10-10.74Q162.24-12.48 166.84-12.48L166.84-12.48L172.36-12.48L172.36-12.80Q172.36-15.04 171.02-16.24Q169.68-17.44 167.04-17.44L167.04-17.44Q165.24-17.44 163.50-16.88Q161.76-16.32 160.56-15.32L160.56-15.32L158.60-18.96Q160.28-20.24 162.64-20.92Q165.00-21.60 167.64-21.60L167.64-21.60ZM166.96-3.36Q168.84-3.36 170.30-4.22Q171.76-5.08 172.36-6.68L172.36-6.68L172.36-9.16L167.20-9.16Q162.88-9.16 162.88-6.32L162.88-6.32Q162.88-4.96 163.96-4.16Q165.04-3.36 166.96-3.36L166.96-3.36Z M203.44-21.36L208.44-21.36L208.44 0L203.68 0L203.68-2.72Q202.48-1.28 200.68-0.50Q198.88 0.28 196.80 0.28L196.80 0.28Q192.52 0.28 190.06-2.10Q187.60-4.48 187.60-9.16L187.60-9.16L187.60-21.36L192.60-21.36L192.60-9.84Q192.60-6.96 193.90-5.54Q195.20-4.12 197.60-4.12L197.60-4.12Q200.28-4.12 201.86-5.78Q203.44-7.44 203.44-10.56L203.44-10.56L203.44-21.36Z M230.44-4.72L231.84-1.16Q230.96-0.44 229.70-0.08Q228.44 0.28 227.04 0.28L227.04 0.28Q223.52 0.28 221.60-1.56Q219.68-3.40 219.68-6.92L219.68-6.92L219.68-17.20L216.16-17.20L216.16-21.20L219.68-21.20L219.68-26.08L224.68-26.08L224.68-21.20L230.40-21.20L230.40-17.20L224.68-17.20L224.68-7.04Q224.68-5.48 225.44-4.66Q226.20-3.84 227.64-3.84L227.64-3.84Q229.32-3.84 230.44-4.72L230.44-4.72Z M254.76-21.36L259.56-21.36L249.56 1.72Q248.16 5.20 246.16 6.62Q244.16 8.04 241.32 8.04L241.32 8.04Q239.72 8.04 238.16 7.52Q236.60 7 235.60 6.08L235.60 6.08L237.60 2.40Q238.32 3.08 239.30 3.48Q240.28 3.88 241.28 3.88L241.28 3.88Q242.60 3.88 243.46 3.20Q244.32 2.52 245.04 0.92L245.04 0.92L245.40 0.08L236.08-21.36L241.28-21.36L248.00-5.56L254.76-21.36Z M291.32 0.28Q288.08 0.28 285.48-1.12Q282.88-2.52 281.42-5.02Q279.96-7.52 279.96-10.68L279.96-10.68Q279.96-13.84 281.42-16.32Q282.88-18.80 285.48-20.20Q288.08-21.60 291.32-21.60L291.32-21.60Q294.60-21.60 297.20-20.20Q299.80-18.80 301.26-16.32Q302.72-13.84 302.72-10.68L302.72-10.68Q302.72-7.52 301.26-5.02Q299.80-2.52 297.20-1.12Q294.60 0.28 291.32 0.28L291.32 0.28ZM291.32-4Q294.08-4 295.88-5.84Q297.68-7.68 297.68-10.68L297.68-10.68Q297.68-13.68 295.88-15.52Q294.08-17.36 291.32-17.36L291.32-17.36Q288.56-17.36 286.78-15.52Q285.00-13.68 285.00-10.68L285.00-10.68Q285.00-7.68 286.78-5.84Q288.56-4 291.32-4L291.32-4Z M320.20-25.92Q317.04-25.92 317.04-22.48L317.04-22.48L317.04-21.20L322.92-21.20L322.92-17.20L317.20-17.20L317.20 0L312.20 0L312.20-17.20L308.68-17.20L308.68-21.20L312.20-21.20L312.20-22.56Q312.20-26 314.20-27.98Q316.20-29.96 319.84-29.96L319.84-29.96Q322.72-29.96 324.36-28.80L324.36-28.80L322.96-25.04Q321.68-25.92 320.20-25.92L320.20-25.92Z M354.48 0.40Q351.24 0.40 348.22-0.52Q345.20-1.44 343.44-2.96L343.44-2.96L345.24-7Q346.96-5.64 349.46-4.78Q351.96-3.92 354.48-3.92L354.48-3.92Q357.60-3.92 359.14-4.92Q360.68-5.92 360.68-7.56L360.68-7.56Q360.68-8.76 359.82-9.54Q358.96-10.32 357.64-10.76Q356.32-11.20 354.04-11.76L354.04-11.76Q350.84-12.52 348.86-13.28Q346.88-14.04 345.46-15.66Q344.04-17.28 344.04-20.04L344.04-20.04Q344.04-22.36 345.30-24.26Q346.56-26.16 349.10-27.28Q351.64-28.40 355.32-28.40L355.32-28.40Q357.88-28.40 360.36-27.76Q362.84-27.12 364.64-25.92L364.64-25.92L363.00-21.88Q361.16-22.96 359.16-23.52Q357.16-24.08 355.28-24.08L355.28-24.08Q352.20-24.08 350.70-23.04Q349.20-22 349.20-20.28L349.20-20.28Q349.20-19.08 350.06-18.32Q350.92-17.56 352.24-17.12Q353.56-16.68 355.84-16.12L355.84-16.12Q358.96-15.40 360.96-14.62Q362.96-13.84 364.38-12.24Q365.80-10.64 365.80-7.92L365.80-7.92Q365.80-5.60 364.54-3.72Q363.28-1.84 360.72-0.72Q358.16 0.40 354.48 0.40L354.48 0.40Z M382.64-21.60Q387.36-21.60 389.86-19.34Q392.36-17.08 392.36-12.52L392.36-12.52L392.36 0L387.64 0L387.64-2.60Q386.72-1.20 385.02-0.46Q383.32 0.28 380.92 0.28L380.92 0.28Q378.52 0.28 376.72-0.54Q374.92-1.36 373.94-2.82Q372.96-4.28 372.96-6.12L372.96-6.12Q372.96-9 375.10-10.74Q377.24-12.48 381.84-12.48L381.84-12.48L387.36-12.48L387.36-12.80Q387.36-15.04 386.02-16.24Q384.68-17.44 382.04-17.44L382.04-17.44Q380.24-17.44 378.50-16.88Q376.76-16.32 375.56-15.32L375.56-15.32L373.60-18.96Q375.28-20.24 377.64-20.92Q380.00-21.60 382.64-21.60L382.64-21.60ZM381.96-3.36Q383.84-3.36 385.30-4.22Q386.76-5.08 387.36-6.68L387.36-6.68L387.36-9.16L382.20-9.16Q377.88-9.16 377.88-6.32L377.88-6.32Q377.88-4.96 378.96-4.16Q380.04-3.36 381.96-3.36L381.96-3.36Z"/></g>
</svg>
</g><g opacity="1" transform="rotate(0 143.3383 204.7008)">
<svg width="378.2215" height="50" x="143.3383" y="204.7008" version="1.1" preserveAspectRatio="none" viewBox="3.32 -31.48 299.24 39.56">
  <g transform="matrix(1 0 0 1 0 0)" class="companyName"><path id="id-D6z1nYkh13" d="M34.88 0L28.80 0L28.76-16.80L20.52-2.96L17.60-2.96L9.40-16.44L9.40 0L3.32 0L3.32-28L8.68-28L19.16-10.60L29.48-28L34.80-28L34.88 0Z M49.76-21.84Q54.76-21.84 57.44-19.46Q60.12-17.08 60.12-12.28L60.12-12.28L60.12 0L54.28 0L54.28-2.68Q52.52 0.32 47.72 0.32L47.72 0.32Q45.24 0.32 43.42-0.52Q41.60-1.36 40.64-2.84Q39.68-4.32 39.68-6.20L39.68-6.20Q39.68-9.20 41.94-10.92Q44.20-12.64 48.92-12.64L48.92-12.64L53.88-12.64Q53.88-14.68 52.64-15.78Q51.40-16.88 48.92-16.88L48.92-16.88Q47.20-16.88 45.54-16.34Q43.88-15.80 42.72-14.88L42.72-14.88L40.48-19.24Q42.24-20.48 44.70-21.16Q47.16-21.84 49.76-21.84L49.76-21.84ZM49.28-3.88Q50.88-3.88 52.12-4.62Q53.36-5.36 53.88-6.80L53.88-6.80L53.88-9L49.60-9Q45.76-9 45.76-6.48L45.76-6.48Q45.76-5.28 46.70-4.58Q47.64-3.88 49.28-3.88L49.28-3.88Z M78.84-21.84Q82.84-21.84 85.30-19.44Q87.76-17.04 87.76-12.32L87.76-12.32L87.76 0L81.52 0L81.52-11.36Q81.52-13.92 80.40-15.18Q79.28-16.44 77.16-16.44L77.16-16.44Q74.80-16.44 73.40-14.98Q72-13.52 72-10.64L72-10.64L72 0L65.76 0L65.76-21.52L71.72-21.52L71.72-19Q72.96-20.36 74.80-21.10Q76.64-21.84 78.84-21.84L78.84-21.84Z M93.40 0L93.40-21.52L99.64-21.52L99.64 0L93.40 0ZM96.52-24.52Q94.80-24.52 93.72-25.52Q92.64-26.52 92.64-28L92.64-28Q92.64-29.48 93.72-30.48Q94.80-31.48 96.52-31.48L96.52-31.48Q98.24-31.48 99.32-30.52Q100.40-29.56 100.40-28.12L100.40-28.12Q100.40-26.56 99.32-25.54Q98.24-24.52 96.52-24.52L96.52-24.52Z M118.52-21.84Q122.52-21.84 124.98-19.44Q127.44-17.04 127.44-12.32L127.44-12.32L127.44 0L121.20 0L121.20-11.36Q121.20-13.92 120.08-15.18Q118.96-16.44 116.84-16.44L116.84-16.44Q114.48-16.44 113.08-14.98Q111.68-13.52 111.68-10.64L111.68-10.64L111.68 0L105.44 0L105.44-21.52L111.40-21.52L111.40-19Q112.64-20.36 114.48-21.10Q116.32-21.84 118.52-21.84L118.52-21.84Z M149.60-21.52L155.52-21.52L155.52-3.60Q155.52 2.32 152.44 5.20Q149.36 8.08 143.44 8.08L143.44 8.08Q140.32 8.08 137.52 7.32Q134.72 6.56 132.88 5.12L132.88 5.12L135.36 0.64Q136.72 1.76 138.80 2.42Q140.88 3.08 142.96 3.08L142.96 3.08Q146.20 3.08 147.74 1.62Q149.28 0.16 149.28-2.80L149.28-2.80L149.28-3.72Q146.84-1.04 142.48-1.04L142.48-1.04Q139.52-1.04 137.06-2.34Q134.60-3.64 133.16-6Q131.72-8.36 131.72-11.44L131.72-11.44Q131.72-14.52 133.16-16.88Q134.60-19.24 137.06-20.54Q139.52-21.84 142.48-21.84L142.48-21.84Q147.16-21.84 149.60-18.76L149.60-18.76L149.60-21.52ZM143.72-6.16Q146.20-6.16 147.78-7.62Q149.36-9.08 149.36-11.44L149.36-11.44Q149.36-13.80 147.78-15.26Q146.20-16.72 143.72-16.72L143.72-16.72Q141.24-16.72 139.64-15.26Q138.04-13.80 138.04-11.44L138.04-11.44Q138.04-9.08 139.64-7.62Q141.24-6.16 143.72-6.16L143.72-6.16Z M192.28-28L198.76-28L198.76 0L192.28 0L192.28-11.48L179.56-11.48L179.56 0L173.08 0L173.08-28L179.56-28L179.56-16.96L192.28-16.96L192.28-28Z M215.20 0.32Q211.80 0.32 209.10-1.10Q206.40-2.52 204.88-5.04Q203.36-7.56 203.36-10.76L203.36-10.76Q203.36-13.96 204.88-16.48Q206.40-19 209.10-20.42Q211.80-21.84 215.20-21.84L215.20-21.84Q218.60-21.84 221.28-20.42Q223.96-19 225.48-16.48Q227-13.96 227-10.76L227-10.76Q227-7.56 225.48-5.04Q223.96-2.52 221.28-1.10Q218.60 0.32 215.20 0.32L215.20 0.32ZM215.20-4.80Q217.60-4.80 219.14-6.42Q220.68-8.04 220.68-10.76L220.68-10.76Q220.68-13.48 219.14-15.10Q217.60-16.72 215.20-16.72L215.20-16.72Q212.80-16.72 211.24-15.10Q209.68-13.48 209.68-10.76L209.68-10.76Q209.68-8.04 211.24-6.42Q212.80-4.80 215.20-4.80L215.20-4.80Z M243.36-5.44L245.04-1.04Q244.12-0.36 242.78-0.02Q241.44 0.32 239.96 0.32L239.96 0.32Q236.12 0.32 234.02-1.64Q231.92-3.60 231.92-7.40L231.92-7.40L231.92-16.24L228.60-16.24L228.60-21.04L231.92-21.04L231.92-26.28L238.16-26.28L238.16-21.04L243.52-21.04L243.52-16.24L238.16-16.24L238.16-7.48Q238.16-6.12 238.86-5.38Q239.56-4.64 240.84-4.64L240.84-4.64Q242.32-4.64 243.36-5.44L243.36-5.44Z M268.96-10.68Q268.96-10.56 268.84-9L268.84-9L252.56-9Q253-7 254.64-5.84Q256.28-4.68 258.72-4.68L258.72-4.68Q260.40-4.68 261.70-5.18Q263-5.68 264.12-6.76L264.12-6.76L267.44-3.16Q264.40 0.32 258.56 0.32L258.56 0.32Q254.92 0.32 252.12-1.10Q249.32-2.52 247.80-5.04Q246.28-7.56 246.28-10.76L246.28-10.76Q246.28-13.92 247.78-16.46Q249.28-19 251.90-20.42Q254.52-21.84 257.76-21.84L257.76-21.84Q260.92-21.84 263.48-20.48Q266.04-19.12 267.50-16.58Q268.96-14.04 268.96-10.68L268.96-10.68ZM257.80-17.12Q255.68-17.12 254.24-15.92Q252.80-14.72 252.48-12.64L252.48-12.64L263.08-12.64Q262.76-14.68 261.32-15.90Q259.88-17.12 257.80-17.12L257.80-17.12Z M273.12 0L273.12-29.68L279.36-29.68L279.36 0L273.12 0Z M292.40 0.32Q289.72 0.32 287.16-0.34Q284.60-1 283.08-2L283.08-2L285.16-6.48Q286.60-5.56 288.64-4.98Q290.68-4.40 292.64-4.40L292.64-4.40Q296.60-4.40 296.60-6.36L296.60-6.36Q296.60-7.28 295.52-7.68Q294.44-8.08 292.20-8.36L292.20-8.36Q289.56-8.76 287.84-9.28Q286.12-9.80 284.86-11.12Q283.60-12.44 283.60-14.88L283.60-14.88Q283.60-16.92 284.78-18.50Q285.96-20.08 288.22-20.96Q290.48-21.84 293.56-21.84L293.56-21.84Q295.84-21.84 298.10-21.34Q300.36-20.84 301.84-19.96L301.84-19.96L299.76-15.52Q296.92-17.12 293.56-17.12L293.56-17.12Q291.56-17.12 290.56-16.56Q289.56-16 289.56-15.12L289.56-15.12Q289.56-14.12 290.64-13.72Q291.72-13.32 294.08-12.96L294.08-12.96Q296.72-12.52 298.40-12.02Q300.08-11.52 301.32-10.20Q302.56-8.88 302.56-6.52L302.56-6.52Q302.56-4.52 301.36-2.96Q300.16-1.40 297.86-0.54Q295.56 0.32 292.40 0.32L292.40 0.32Z"/></g>
</svg>
</g><g opacity="1" transform="rotate(0 123.3383 177.7008)">
<svg width="4" height="136" x="123.3383" y="177.7008" version="1.1" preserveAspectRatio="none" viewBox="0 0 4 136">
  <defs><rect x="0" y="0" width="4" height="136" rx="0px" ry="0px" id="id-tBXipXk0b1728548864457"></rect></defs><use class="companyName shapeStroke-str" style="stroke-width:0;" xlink:href="#id-tBXipXk0b1728548864457"></use>
</svg>
</g></svg></svg>